<?xml version="1.0" encoding="UTF-8" standalone="no"?><!DOCTYPE svg PUBLIC "-//W3C//DTD SVG 1.1//EN" "http://www.w3.org/Graphics/SVG/1.1/DTD/svg11.dtd"><svg width="100%" height="100%" viewBox="0 0 614 614" version="1.1" xmlns="http://www.w3.org/2000/svg" xmlns:xlink="http://www.w3.org/1999/xlink" xml:space="preserve" xmlns:serif="http://www.serif.com/" style="fill-rule:evenodd;clip-rule:evenodd;stroke-linejoin:round;stroke-miterlimit:2;"><rect x="-0.752" y="-0.588" width="616.516" height="616.516" style="fill:#38a974;"/><g><path d="M513.461,542.508l-71.639,0l-136.535,-314.367l-142.996,314.367l-70.515,0l214.635,-461.016l207.05,461.016Z" style="fill:#fff;fill-rule:nonzero;"/><path d="M196.682,491.983c-7.058,-66.267 -27.179,-129.716 -52.481,-192.048l94.327,97.983c85.621,-73.259 220.574,-119.707 347.822,-170.342c-139.162,81.705 -278.088,163.574 -389.668,264.407Z" style="fill:#97d2b6;fill-rule:nonzero;"/><path d="M596.356,244.615l-6.522,3.83l-6.519,3.828l-6.516,3.83l-6.513,3.83l-3.253,1.915l-3.253,1.915l-3.252,1.916l-3.251,1.916l-3.249,1.917l-3.248,1.918l-3.246,1.918l-3.245,1.918l-3.242,1.919l-3.241,1.92l-3.24,1.921l-3.237,1.922l-3.235,1.922l-3.233,1.924l-3.231,1.924l-3.229,1.926l-3.226,1.926l-3.224,1.928l-3.221,1.929l-3.219,1.931l-3.216,1.931l-3.214,1.933l-3.21,1.935l-3.208,1.936l-3.205,1.937l-3.203,1.94l-1.598,0.969l-1.599,0.971l-1.599,0.971l-1.597,0.971l-1.597,0.972l-1.595,0.972l-1.595,0.973l-1.594,0.973l-1.593,0.974l-1.592,0.974l-1.592,0.975l-1.59,0.975l-1.59,0.975l-1.589,0.976l-1.587,0.977l-1.587,0.977l-1.586,0.977l-1.585,0.979l-1.584,0.978l-1.583,0.979l-1.583,0.98l-1.581,0.98l-1.58,0.981l-1.579,0.981l-1.578,0.982l-1.577,0.983l-1.576,0.983l-1.575,0.983l-1.574,0.985l-1.573,0.984l-1.572,0.986l-1.571,0.986l-1.569,0.987l-1.569,0.987l-1.568,0.988l-1.566,0.988l-1.565,0.99l-1.564,0.989l-1.563,0.991l-1.562,0.991l-1.56,0.992l-1.56,0.992l-1.558,0.994l-1.557,0.993l-1.556,0.995l-1.555,0.995l-1.553,0.996l-1.552,0.997l-1.551,0.997l-1.55,0.998l-1.548,0.999l-1.547,1l-1.546,1l-1.545,1.001l-1.543,1.002l-1.542,1.003l-1.54,1.003l-1.54,1.005l-1.538,1.004l-1.536,1.006l-1.536,1.007l-1.533,1.007l-1.533,1.008l-1.531,1.009l-1.53,1.01l-1.528,1.011l-1.527,1.011l-1.525,1.012l-1.524,1.014l-1.523,1.014l-1.52,1.014l-1.52,1.016l-1.518,1.017l-1.517,1.017l-1.515,1.019l-1.514,1.019l-1.512,1.02l-1.51,1.021l-1.509,1.022l-1.508,1.023l-1.506,1.024l-1.504,1.025l-1.503,1.025l-1.501,1.027l-1.5,1.027l-1.498,1.029l-1.496,1.029l-1.495,1.031l-1.493,1.031l-1.492,1.033l-1.49,1.033l-1.488,1.035l-1.486,1.035l-1.485,1.036l-1.483,1.038l-1.482,1.038l-1.479,1.04l-1.479,1.04l-1.476,1.042l-1.474,1.042l-1.473,1.044l-1.471,1.044l-1.469,1.046l-1.468,1.047l-1.466,1.048l-1.464,1.049l-1.462,1.05l-1.46,1.051l-1.458,1.052l-1.457,1.053l-1.455,1.055l-1.453,1.055l-1.451,1.057l-1.449,1.058l-1.447,1.059l-1.446,1.06l-1.443,1.061l-1.442,1.063l-1.44,1.063l-1.438,1.065l-1.435,1.066l-1.434,1.067l-1.432,1.068l-1.43,1.07l-1.428,1.07l-1.426,1.072l-1.424,1.073l-1.422,1.074l-1.42,1.076l-1.418,1.077l-1.415,1.078l-1.414,1.079l-1.412,1.081l-1.41,1.081l-1.407,1.083l-1.406,1.084l-1.404,1.086l-1.401,1.087l-1.399,1.088l-1.397,1.089l-1.395,1.091l-1.393,1.092l-1.391,1.093l-1.388,1.095l-1.387,1.096l-1.384,1.097l-1.382,1.098l-1.38,1.1l-1.377,1.101l-1.376,1.103l-1.373,1.104l-1.371,1.105l-1.368,1.107l-1.367,1.108l-1.364,1.11l-1.362,1.111l-1.359,1.112l-1.358,1.114l-1.355,1.115l-1.352,1.116l-1.351,1.118l-1.348,1.119l-1.346,1.121l-1.343,1.122l-1.341,1.124l-1.339,1.125l-1.336,1.127l-1.333,1.127l-1.332,1.13l-1.329,1.131l-1.327,1.132l-1.324,1.134l-1.322,1.136l-1.319,1.137l-1.317,1.138l-1.314,1.14l-1.313,1.141l-1.309,1.144l-1.307,1.144l-1.304,1.146l-1.303,1.148l-1.299,1.148l-1.297,1.151l-1.294,1.153l-1.292,1.153l-1.29,1.156l-1.286,1.157l-30.048,27.108l-4.213,-39.263l-0.082,-0.746l-0.082,-0.746l-0.083,-0.745l-0.085,-0.745l-0.086,-0.745l-0.087,-0.744l-0.088,-0.745l-0.089,-0.745l-0.09,-0.744l-0.092,-0.743l-0.092,-0.744l-0.094,-0.744l-0.095,-0.744l-0.096,-0.743l-0.097,-0.743l-0.098,-0.743l-0.099,-0.743l-0.1,-0.742l-0.102,-0.743l-0.102,-0.742l-0.104,-0.742l-0.105,-0.742l-0.106,-0.741l-0.107,-0.742l-0.108,-0.741l-0.109,-0.741l-0.111,-0.742l-0.111,-0.741l-0.112,-0.74l-0.114,-0.74l-0.114,-0.741l-0.116,-0.74l-0.117,-0.74l-0.118,-0.74l-0.118,-0.74l-0.12,-0.739l-0.121,-0.74l-0.122,-0.739l-0.124,-0.739l-0.124,-0.739l-0.125,-0.739l-0.126,-0.738l-0.128,-0.739l-0.128,-0.738l-0.129,-0.738l-0.131,-0.738l-0.131,-0.738l-0.133,-0.738l-0.133,-0.737l-0.135,-0.737l-0.136,-0.738l-0.136,-0.737l-0.138,-0.736l-0.139,-0.737l-0.139,-0.737l-0.141,-0.736l-0.142,-0.737l-0.143,-0.736l-0.143,-0.736l-0.145,-0.736l-0.146,-0.735l-0.147,-0.736l-0.147,-0.736l-0.149,-0.735l-0.15,-0.735l-0.151,-0.735l-0.151,-0.735l-0.153,-0.735l-0.154,-0.734l-0.154,-0.735l-0.156,-0.735l-0.157,-0.734l-0.157,-0.733l-0.159,-0.734l-0.159,-0.734l-0.161,-0.734l-0.161,-0.733l-0.163,-0.734l-0.163,-0.733l-0.164,-0.733l-0.166,-0.733l-0.166,-0.734l-0.167,-0.732l-0.168,-0.733l-0.169,-0.732l-0.17,-0.732l-0.171,-0.733l-0.172,-0.732l-0.173,-0.732l-0.174,-0.732l-0.174,-0.732l-0.176,-0.731l-0.176,-0.732l-0.178,-0.731l-0.178,-0.732l-0.18,-0.731l-0.18,-0.73l-0.181,-0.731l-0.182,-0.732l-0.183,-0.73l-0.184,-0.731l-0.184,-0.73l-0.186,-0.73l-0.186,-0.731l-0.188,-0.73l-0.188,-0.73l-0.189,-0.73l-0.19,-0.73l-0.191,-0.729l-0.192,-0.729l-0.193,-0.73l-0.193,-0.729l-0.195,-0.729l-0.195,-0.73l-0.196,-0.729l-0.197,-0.729l-0.198,-0.728l-0.199,-0.729l-0.199,-0.729l-0.201,-0.728l-0.201,-0.728l-0.202,-0.729l-0.203,-0.728l-0.204,-0.728l-0.205,-0.728l-0.206,-0.728l-0.206,-0.728l-0.207,-0.727l-0.208,-0.728l-0.209,-0.727l-0.21,-0.728l-0.21,-0.727l-0.211,-0.727l-0.212,-0.727l-0.213,-0.727l-0.214,-0.727l-0.215,-0.727l-0.215,-0.726l-0.216,-0.727l-0.217,-0.727l-0.218,-0.726l-0.219,-0.726l-0.219,-0.726l-0.22,-0.727l-0.221,-0.726l-0.222,-0.725l-0.223,-0.726l-0.223,-0.726l-0.224,-0.726l-0.225,-0.726l-0.226,-0.725l-0.226,-0.725l-0.227,-0.726l-0.228,-0.725l-0.229,-0.725l-0.229,-0.725l-0.231,-0.725l-0.231,-0.725l-0.231,-0.725l-0.233,-0.724l-0.233,-0.725l-0.234,-0.725l-0.233,-0.72l-0.474,-1.453l-0.474,-1.448l-0.478,-1.448l-0.48,-1.448l-0.484,-1.448l-0.486,-1.447l-0.489,-1.447l-0.492,-1.447l-0.494,-1.446l-0.498,-1.446l-0.5,-1.446l-0.503,-1.445l-0.505,-1.446l-0.508,-1.445l-0.511,-1.444l-0.514,-1.445l-0.516,-1.444l-0.519,-1.444l-0.521,-1.444l-0.524,-1.443l-0.527,-1.443l-0.529,-1.443l-0.531,-1.443l-0.534,-1.443l-0.537,-1.442l-0.538,-1.442l-0.542,-1.442l-0.543,-1.442l-0.546,-1.441l-0.549,-1.442l-0.55,-1.441l-0.554,-1.441l-0.555,-1.441l-0.557,-1.44l-0.56,-1.441l-0.562,-1.44l-0.564,-1.44l-0.567,-1.44l-0.568,-1.439l-0.571,-1.44l-0.573,-1.44l-0.575,-1.439l-0.577,-1.439l-0.579,-1.439l-0.581,-1.439l-39.03,-96.318l152.7,158.619l0.2,-0.157l0.558,-0.432l0.558,-0.433l0.559,-0.431l0.561,-0.431l0.561,-0.429l0.562,-0.43l0.564,-0.429l0.564,-0.427l0.565,-0.428l0.566,-0.426l0.568,-0.426l0.568,-0.426l0.568,-0.424l0.571,-0.424l0.571,-0.424l0.572,-0.422l0.573,-0.422l0.573,-0.421l0.575,-0.421l0.576,-0.42l0.577,-0.419l0.577,-0.419l0.579,-0.417l0.579,-0.418l0.581,-0.417l0.581,-0.416l0.582,-0.415l0.584,-0.415l0.584,-0.414l0.584,-0.413l0.587,-0.413l0.587,-0.413l0.587,-0.411l0.589,-0.411l0.589,-0.41l0.591,-0.41l0.591,-0.409l0.592,-0.409l0.594,-0.407l0.593,-0.407l0.595,-0.407l0.597,-0.406l0.596,-0.406l0.597,-0.404l0.599,-0.404l0.599,-0.404l0.601,-0.403l0.601,-0.402l0.601,-0.402l0.603,-0.401l0.604,-0.401l0.605,-0.4l0.605,-0.399l0.606,-0.399l0.607,-0.398l0.608,-0.397l0.609,-0.397l0.609,-0.397l0.611,-0.396l0.611,-0.395l0.612,-0.394l0.613,-0.395l0.613,-0.393l0.615,-0.393l0.616,-0.392l0.616,-0.392l0.617,-0.391l0.618,-0.391l0.619,-0.39l0.619,-0.389l0.62,-0.389l0.621,-0.389l0.622,-0.387l0.623,-0.388l0.624,-0.387l0.624,-0.386l0.625,-0.385l0.626,-0.386l0.627,-0.384l0.627,-0.384l0.628,-0.383l0.629,-0.383l0.63,-0.382l0.631,-0.383l0.631,-0.381l0.632,-0.381l0.633,-0.38l0.634,-0.38l0.634,-0.379l0.636,-0.379l0.636,-0.378l0.636,-0.377l0.637,-0.377l0.639,-0.377l0.639,-0.376l0.64,-0.376l0.64,-0.374l0.642,-0.375l0.641,-0.374l0.643,-0.373l0.643,-0.374l0.645,-0.372l0.645,-0.372l0.645,-0.372l0.646,-0.371l0.647,-0.37l0.648,-0.37l0.649,-0.37l0.649,-0.369l0.65,-0.368l0.655,-0.37l1.299,-0.733l1.306,-0.732l1.309,-0.731l1.311,-0.729l1.315,-0.727l1.317,-0.725l1.32,-0.723l1.322,-0.722l1.326,-0.719l1.328,-0.718l1.33,-0.716l1.333,-0.714l1.336,-0.712l1.338,-0.711l1.341,-0.709l1.344,-0.707l1.345,-0.705l1.349,-0.704l1.351,-0.702l1.353,-0.7l1.356,-0.698l1.358,-0.697l1.36,-0.696l1.363,-0.693l1.366,-0.692l1.367,-0.691l1.37,-0.689l1.372,-0.687l1.375,-0.686l1.376,-0.684l1.379,-0.682l1.382,-0.681l1.383,-0.68l1.385,-0.678l1.388,-0.677l1.39,-0.675l1.392,-0.673l1.394,-0.673l1.396,-0.67l1.398,-0.67l1.401,-0.668l1.402,-0.666l1.404,-0.665l1.406,-0.664l1.409,-0.662l1.41,-0.661l1.412,-0.66l1.414,-0.659l1.416,-0.657l1.417,-0.655l1.42,-0.655l1.421,-0.653l1.423,-0.652l1.426,-0.651l1.426,-0.65l1.429,-0.648l1.43,-0.647l1.432,-0.646l1.433,-0.645l1.436,-0.643l1.437,-0.643l1.438,-0.641l1.44,-0.64l1.442,-0.639l1.443,-0.638l1.445,-0.637l1.447,-0.635l1.447,-0.635l1.45,-0.634l1.451,-0.632l1.452,-0.632l1.454,-0.63l1.455,-0.63l1.456,-0.628l1.458,-0.628l1.46,-0.626l1.46,-0.626l1.462,-0.624l1.463,-0.624l1.465,-0.623l1.466,-0.621l1.467,-0.621l1.468,-0.62l1.469,-0.619l1.471,-0.619l1.471,-0.617l1.473,-0.617l1.474,-0.616l1.475,-0.615l1.476,-0.614l1.477,-0.613l1.478,-0.613l1.48,-0.611l1.48,-0.611l1.481,-0.611l1.482,-0.609l1.483,-0.609l1.484,-0.608l1.485,-0.608l1.486,-0.606l1.486,-0.607l1.488,-0.605l1.488,-0.605l1.489,-0.604l1.49,-0.603l1.491,-0.603l1.491,-0.602l1.492,-0.602l1.493,-0.601l1.493,-0.601l1.496,-0.6l2.988,-1.198l2.992,-1.196l2.995,-1.194l2.997,-1.192l2.998,-1.191l3.001,-1.188l3.001,-1.187l3.004,-1.186l3.004,-1.184l3.006,-1.183l3.006,-1.181l3.008,-1.18l3.008,-1.179l3.008,-1.178l3.009,-1.178l3.009,-1.176l6.016,-2.35l6.016,-2.349l6.013,-2.347l6.009,-2.346l6.005,-2.346l2.998,-1.173l2.998,-1.173l2.995,-1.174l2.994,-1.174l2.991,-1.175l2.988,-1.175l2.986,-1.176l2.983,-1.177l2.98,-1.177l2.977,-1.179l2.974,-1.179l2.977,-1.183l17.304,35.401Zm-12.989,-15.853l-2.987,1.184l-2.989,1.183l-2.991,1.182l-2.993,1.181l-2.996,1.18l-2.997,1.179l-2.999,1.177l-3,1.177l-3.002,1.176l-3.003,1.176l-3.004,1.175l-6.011,2.349l-6.012,2.347l-6.014,2.347l-6.013,2.348l-6.011,2.348l-3.005,1.175l-3.003,1.175l-3.003,1.176l-3.001,1.176l-3,1.177l-2.998,1.178l-2.997,1.18l-2.994,1.18l-2.993,1.181l-2.99,1.182l-2.988,1.184l-2.986,1.185l-2.982,1.187l-2.98,1.188l-2.977,1.19l-2.973,1.192l-1.485,0.596l-1.485,0.597l-1.484,0.598l-1.483,0.598l-1.481,0.598l-1.481,0.599l-1.48,0.599l-1.479,0.6l-1.478,0.601l-1.477,0.601l-1.476,0.602l-1.475,0.602l-1.474,0.603l-1.472,0.603l-1.472,0.605l-1.47,0.604l-1.469,0.606l-1.468,0.606l-1.467,0.606l-1.466,0.608l-1.464,0.608l-1.463,0.608l-1.462,0.61l-1.46,0.61l-1.459,0.611l-1.458,0.611l-1.456,0.613l-1.455,0.613l-1.454,0.613l-1.452,0.615l-1.45,0.616l-1.45,0.616l-1.447,0.617l-1.446,0.618l-1.445,0.618l-1.443,0.62l-1.441,0.62l-1.44,0.622l-1.439,0.622l-1.436,0.623l-1.435,0.624l-1.433,0.625l-1.432,0.625l-1.43,0.627l-1.428,0.628l-1.426,0.628l-1.425,0.63l-1.423,0.631l-1.42,0.631l-1.42,0.633l-1.417,0.633l-1.415,0.635l-1.414,0.636l-1.411,0.636l-1.41,0.638l-1.407,0.639l-1.406,0.64l-1.403,0.641l-1.402,0.642l-1.399,0.643l-1.398,0.644l-1.395,0.646l-1.394,0.647l-1.391,0.647l-1.389,0.649l-1.386,0.65l-1.385,0.652l-1.382,0.652l-1.381,0.654l-1.377,0.655l-1.376,0.656l-1.373,0.657l-1.371,0.659l-1.369,0.66l-1.367,0.661l-1.363,0.663l-1.362,0.664l-1.359,0.665l-1.357,0.666l-1.354,0.668l-1.352,0.669l-1.349,0.671l-1.347,0.672l-1.344,0.673l-1.342,0.675l-1.339,0.676l-1.337,0.677l-1.333,0.679l-1.332,0.68l-1.328,0.682l-1.326,0.683l-1.323,0.685l-1.321,0.686l-1.318,0.688l-1.315,0.689l-1.312,0.691l-1.309,0.692l-1.307,0.693l-1.303,0.696l-1.301,0.697l-1.298,0.698l-1.295,0.7l-1.292,0.702l-1.29,0.703l-1.286,0.704l-1.283,0.707l-1.28,0.708l-1.278,0.71l-1.274,0.711l-1.271,0.713l-1.268,0.715l-0.633,0.358l-0.632,0.358l-0.631,0.359l-0.63,0.359l-0.63,0.36l-0.629,0.36l-0.628,0.36l-0.628,0.361l-0.626,0.362l-0.626,0.362l-0.625,0.362l-0.624,0.363l-0.623,0.363l-0.623,0.363l-0.621,0.364l-0.621,0.365l-0.62,0.365l-0.619,0.365l-0.619,0.366l-0.617,0.366l-0.617,0.367l-0.616,0.367l-0.615,0.368l-0.614,0.368l-0.614,0.368l-0.612,0.369l-0.612,0.37l-0.611,0.37l-0.61,0.37l-0.609,0.371l-0.609,0.371l-0.607,0.372l-0.607,0.372l-0.606,0.373l-0.604,0.373l-0.604,0.374l-0.604,0.374l-0.602,0.374l-0.601,0.375l-0.601,0.376l-0.599,0.376l-0.599,0.376l-0.598,0.377l-0.597,0.378l-0.596,0.378l-0.595,0.378l-0.595,0.379l-0.593,0.379l-0.593,0.38l-0.591,0.381l-0.591,0.381l-0.59,0.381l-0.589,0.382l-0.588,0.382l-0.587,0.383l-0.586,0.383l-0.585,0.384l-0.585,0.385l-0.583,0.384l-0.582,0.386l-0.582,0.386l-0.581,0.386l-0.579,0.387l-0.579,0.387l-0.578,0.388l-0.577,0.388l-0.576,0.389l-0.574,0.39l-0.574,0.39l-0.574,0.39l-0.572,0.391l-0.571,0.392l-0.57,0.392l-0.569,0.392l-0.568,0.393l-0.568,0.394l-0.566,0.394l-0.565,0.395l-0.565,0.395l-0.563,0.396l-0.562,0.396l-0.562,0.397l-0.56,0.397l-0.56,0.398l-0.558,0.398l-0.558,0.399l-0.556,0.4l-0.555,0.4l-0.555,0.4l-0.553,0.402l-0.553,0.401l-0.551,0.402l-0.551,0.403l-0.549,0.404l-0.548,0.403l-0.548,0.405l-0.546,0.405l-0.546,0.405l-0.544,0.406l-0.543,0.407l-0.542,0.407l-0.542,0.408l-0.54,0.408l-0.539,0.409l-0.538,0.41l-0.537,0.41l-0.536,0.41l-0.535,0.412l-0.534,0.411l-0.533,0.413l-0.531,0.413l-0.531,0.413l-0.53,0.414l-0.528,0.415l-0.528,0.415l-0.526,0.416l-0.526,0.416l-0.524,0.417l-0.523,0.418l-0.522,0.418l-0.521,0.419l-0.52,0.419l-0.519,0.42l-0.518,0.42l-0.517,0.421l-0.515,0.422l-0.515,0.422l-0.513,0.423l-0.512,0.424l-0.512,0.424l-0.51,0.425l-0.509,0.425l-0.508,0.426l-0.506,0.426l-0.506,0.427l-0.504,0.428l-0.504,0.428l-0.502,0.429l-94.327,-97.983l0.592,1.461l0.59,1.462l0.589,1.462l0.586,1.462l0.584,1.463l0.582,1.463l0.581,1.464l0.578,1.464l0.576,1.465l0.574,1.465l0.572,1.465l0.569,1.466l0.568,1.466l0.565,1.467l0.563,1.468l0.561,1.467l0.559,1.469l0.556,1.468l0.554,1.47l0.552,1.47l0.549,1.47l0.547,1.471l0.545,1.471l0.542,1.472l0.54,1.472l0.537,1.473l0.535,1.474l0.532,1.474l0.53,1.474l0.527,1.475l0.525,1.476l0.522,1.476l0.52,1.477l0.516,1.477l0.515,1.478l0.511,1.479l0.509,1.479l0.506,1.479l0.503,1.481l0.501,1.48l0.497,1.482l0.495,1.482l0.492,1.483l0.489,1.483l0.486,1.484l0.484,1.484l0.24,0.743l0.24,0.743l0.239,0.742l0.239,0.743l0.237,0.744l0.237,0.743l0.236,0.743l0.236,0.744l0.234,0.744l0.234,0.744l0.233,0.744l0.232,0.744l0.232,0.745l0.231,0.744l0.23,0.745l0.229,0.745l0.228,0.745l0.228,0.745l0.227,0.746l0.226,0.746l0.225,0.745l0.225,0.746l0.224,0.747l0.223,0.746l0.222,0.746l0.221,0.747l0.221,0.747l0.219,0.747l0.219,0.747l0.218,0.747l0.217,0.748l0.217,0.748l0.215,0.748l0.215,0.748l0.214,0.748l0.213,0.748l0.213,0.749l0.211,0.749l0.211,0.749l0.209,0.749l0.209,0.749l0.208,0.75l0.208,0.749l0.206,0.75l0.205,0.75l0.205,0.751l0.204,0.75l0.203,0.751l0.202,0.751l0.201,0.751l0.2,0.751l0.2,0.751l0.198,0.752l0.198,0.752l0.197,0.752l0.196,0.752l0.195,0.752l0.194,0.753l0.193,0.752l0.192,0.753l0.192,0.753l0.19,0.754l0.19,0.753l0.188,0.754l0.188,0.754l0.187,0.754l0.186,0.754l0.185,0.755l0.184,0.754l0.183,0.755l0.182,0.755l0.181,0.756l0.181,0.755l0.179,0.756l0.179,0.756l0.177,0.756l0.177,0.756l0.175,0.757l0.175,0.757l0.174,0.756l0.172,0.758l0.172,0.757l0.171,0.758l0.17,0.757l0.169,0.758l0.168,0.758l0.167,0.759l0.166,0.758l0.165,0.759l0.164,0.759l0.163,0.76l0.162,0.759l0.161,0.76l0.16,0.76l0.159,0.76l0.158,0.76l0.157,0.761l0.156,0.76l0.155,0.761l0.154,0.761l0.153,0.762l0.152,0.761l0.15,0.762l0.15,0.762l0.149,0.763l0.148,0.762l0.147,0.763l0.146,0.763l0.144,0.763l0.144,0.763l0.143,0.764l0.141,0.764l0.141,0.764l0.14,0.764l0.138,0.765l0.137,0.765l0.137,0.765l0.135,0.765l0.134,0.765l0.133,0.766l0.132,0.766l0.131,0.766l0.13,0.766l0.129,0.767l0.128,0.767l0.127,0.767l0.125,0.767l0.125,0.768l0.123,0.768l0.122,0.768l0.121,0.768l0.121,0.768l0.119,0.769l0.117,0.769l0.117,0.769l0.116,0.77l0.114,0.77l0.114,0.77l0.112,0.77l0.111,0.77l0.11,0.771l0.109,0.771l0.108,0.771l0.107,0.771l0.105,0.772l0.104,0.772l0.104,0.772l0.102,0.772l0.101,0.773l0.099,0.773l0.099,0.773l0.097,0.773l0.097,0.774l0.095,0.774l0.094,0.774l0.093,0.774l0.091,0.775l0.091,0.775l0.089,0.775l0.088,0.776l0.087,0.775l0.085,0.776l0.085,0.776l0.083,0.777l1.309,-1.181l1.311,-1.179l1.314,-1.177l1.316,-1.176l1.319,-1.174l1.321,-1.172l1.324,-1.171l1.326,-1.168l1.329,-1.167l1.331,-1.166l1.333,-1.164l1.336,-1.162l1.338,-1.16l1.34,-1.159l1.343,-1.157l1.345,-1.156l1.348,-1.154l1.35,-1.152l1.352,-1.151l1.355,-1.149l1.356,-1.147l1.36,-1.146l1.361,-1.144l1.364,-1.143l1.366,-1.141l1.368,-1.14l1.371,-1.138l1.372,-1.136l1.375,-1.135l1.378,-1.133l1.379,-1.132l1.382,-1.13l1.383,-1.129l1.386,-1.127l1.389,-1.126l1.39,-1.124l1.392,-1.123l1.395,-1.121l1.397,-1.12l1.399,-1.118l1.401,-1.117l1.403,-1.116l1.405,-1.113l1.407,-1.113l1.41,-1.111l1.411,-1.11l1.414,-1.108l1.415,-1.106l1.418,-1.106l1.42,-1.104l1.421,-1.102l1.424,-1.101l1.426,-1.1l1.427,-1.099l1.43,-1.097l1.431,-1.095l1.434,-1.094l1.435,-1.093l1.438,-1.092l1.439,-1.09l1.442,-1.089l1.443,-1.088l1.445,-1.086l1.447,-1.085l1.449,-1.083l1.451,-1.083l1.452,-1.081l1.455,-1.08l1.456,-1.078l1.458,-1.077l1.46,-1.076l1.462,-1.075l1.464,-1.073l1.465,-1.073l1.467,-1.07l1.469,-1.07l1.471,-1.069l1.472,-1.067l1.475,-1.066l1.476,-1.065l1.477,-1.064l1.48,-1.062l1.481,-1.061l1.483,-1.06l1.484,-1.059l1.486,-1.058l1.488,-1.057l1.49,-1.055l1.491,-1.054l1.493,-1.054l1.494,-1.052l1.496,-1.051l1.498,-1.049l1.499,-1.049l1.501,-1.048l1.503,-1.046l1.504,-1.046l1.505,-1.044l1.507,-1.043l1.509,-1.042l1.51,-1.041l1.512,-1.04l1.513,-1.039l1.515,-1.038l1.516,-1.037l1.518,-1.036l1.519,-1.035l1.521,-1.034l1.522,-1.033l1.524,-1.032l1.525,-1.03l1.526,-1.03l1.528,-1.029l1.529,-1.028l1.531,-1.027l1.532,-1.026l1.534,-1.025l1.534,-1.024l1.537,-1.023l1.537,-1.022l1.539,-1.021l1.54,-1.021l1.542,-1.019l1.543,-1.019l1.544,-1.017l1.545,-1.017l1.547,-1.016l1.548,-1.015l1.549,-1.014l1.551,-1.013l1.551,-1.012l1.553,-1.012l1.555,-1.01l1.555,-1.01l1.557,-1.009l1.557,-1.008l1.559,-1.007l1.561,-1.007l1.561,-1.005l1.562,-1.005l1.564,-1.004l1.565,-1.004l1.566,-1.002l1.567,-1.002l1.568,-1.001l1.569,-1l1.57,-0.999l1.572,-0.999l1.572,-0.998l1.574,-0.997l1.574,-0.997l1.576,-0.995l1.577,-0.996l1.577,-0.994l1.579,-0.994l1.58,-0.992l1.58,-0.993l1.582,-0.991l1.583,-0.991l1.583,-0.99l1.585,-0.99l1.585,-0.989l1.586,-0.988l1.588,-0.988l1.588,-0.987l1.589,-0.986l1.59,-0.986l1.591,-0.985l1.592,-0.985l1.593,-0.984l1.593,-0.983l1.595,-0.983l1.595,-0.982l1.596,-0.981l1.597,-0.981l1.597,-0.981l1.599,-0.98l1.599,-0.979l1.6,-0.979l1.601,-0.978l1.601,-0.978l1.603,-0.977l1.603,-0.977l1.603,-0.976l1.605,-0.976l1.605,-0.975l1.606,-0.975l1.607,-0.974l3.215,-1.948l3.218,-1.945l3.22,-1.943l3.223,-1.942l3.225,-1.94l3.228,-1.939l3.23,-1.937l3.232,-1.935l3.234,-1.934l3.236,-1.933l3.238,-1.931l3.24,-1.93l3.242,-1.929l3.244,-1.927l3.245,-1.927l3.247,-1.925l3.248,-1.924l3.25,-1.923l3.251,-1.923l3.252,-1.921l3.253,-1.921l3.255,-1.92l3.255,-1.919l3.256,-1.919l3.258,-1.918l3.258,-1.917l6.518,-3.834l6.52,-3.831l6.522,-3.831l6.523,-3.83l-2.983,1.186Z" style="fill:#38a974;"/></g></svg>